<mxfile host="app.diagrams.net" modified="2023-06-15T15:48:41.245Z" agent="Mozilla/5.0 (Macintosh; Intel Mac OS X 10_15_7) AppleWebKit/537.36 (KHTML, like Gecko) Chrome/114.0.0.0 Safari/537.36" etag="DZhuisRV7sifj61KGBOn" version="21.3.8" type="github" pages="2">
  <diagram name="SystemArchitecture" id="sRmaoOlEm64ONSSTu1jG">
    <mxGraphModel dx="1242" dy="796" grid="1" gridSize="10" guides="1" tooltips="1" connect="1" arrows="1" fold="1" page="1" pageScale="1" pageWidth="827" pageHeight="1169" math="0" shadow="0">
      <root>
        <mxCell id="0" />
        <mxCell id="1" parent="0" />
        <mxCell id="91-crwCGvRFBWFTtSziR-1" value="&lt;b&gt;user (non EOA)&lt;/b&gt;" style="shape=umlActor;verticalLabelPosition=bottom;verticalAlign=top;html=1;outlineConnect=0;" parent="1" vertex="1">
          <mxGeometry x="40" y="205" width="30" height="60" as="geometry" />
        </mxCell>
        <mxCell id="91-crwCGvRFBWFTtSziR-2" value="" style="ellipse;shape=cloud;whiteSpace=wrap;html=1;fillColor=#dae8fc;strokeColor=#6c8ebf;" parent="1" vertex="1">
          <mxGeometry x="420" y="60" width="450" height="420" as="geometry" />
        </mxCell>
        <mxCell id="91-crwCGvRFBWFTtSziR-3" value="Blockchain Network" style="text;html=1;strokeColor=none;fillColor=none;align=center;verticalAlign=middle;whiteSpace=wrap;rounded=0;fontStyle=1;fontSize=15;" parent="1" vertex="1">
          <mxGeometry x="525" y="150" width="240" height="30" as="geometry" />
        </mxCell>
        <mxCell id="91-crwCGvRFBWFTtSziR-5" value="EntryPoint&lt;br&gt;Contract" style="rounded=0;whiteSpace=wrap;html=1;fontStyle=1;fillColor=#ffff88;strokeColor=#36393d;" parent="1" vertex="1">
          <mxGeometry x="501.5" y="205" width="120" height="60" as="geometry" />
        </mxCell>
        <mxCell id="91-crwCGvRFBWFTtSziR-6" value="SimpleAccount&lt;br&gt;Contract&lt;br&gt;(ContractWallet)" style="rounded=0;whiteSpace=wrap;html=1;fontStyle=1;fillColor=#ffff88;strokeColor=#36393d;" parent="1" vertex="1">
          <mxGeometry x="658.5" y="205" width="130" height="60" as="geometry" />
        </mxCell>
        <mxCell id="91-crwCGvRFBWFTtSziR-9" value="" style="endArrow=none;html=1;rounded=0;entryX=0;entryY=0.5;entryDx=0;entryDy=0;exitX=1;exitY=0.5;exitDx=0;exitDy=0;" parent="1" source="91-crwCGvRFBWFTtSziR-5" target="91-crwCGvRFBWFTtSziR-6" edge="1">
          <mxGeometry width="50" height="50" relative="1" as="geometry">
            <mxPoint x="610" y="270" as="sourcePoint" />
            <mxPoint x="647" y="230" as="targetPoint" />
          </mxGeometry>
        </mxCell>
        <mxCell id="91-crwCGvRFBWFTtSziR-10" value="frontend" style="rounded=0;whiteSpace=wrap;html=1;fontStyle=1;fillColor=#e1d5e7;strokeColor=#9673a6;" parent="1" vertex="1">
          <mxGeometry x="90" y="205" width="80" height="60" as="geometry" />
        </mxCell>
        <mxCell id="91-crwCGvRFBWFTtSziR-11" value="StackUp&#39;s&lt;br&gt;bundler" style="rounded=0;whiteSpace=wrap;html=1;fontStyle=1;fillColor=#d5e8d4;strokeColor=#82b366;" parent="1" vertex="1">
          <mxGeometry x="274.25" y="200" width="90" height="70" as="geometry" />
        </mxCell>
        <mxCell id="91-crwCGvRFBWFTtSziR-12" value="" style="endArrow=classic;html=1;rounded=0;exitX=1;exitY=0.5;exitDx=0;exitDy=0;entryX=0;entryY=0.5;entryDx=0;entryDy=0;" parent="1" source="91-crwCGvRFBWFTtSziR-11" target="91-crwCGvRFBWFTtSziR-5" edge="1">
          <mxGeometry width="50" height="50" relative="1" as="geometry">
            <mxPoint x="370" y="230" as="sourcePoint" />
            <mxPoint x="420" y="180" as="targetPoint" />
          </mxGeometry>
        </mxCell>
        <mxCell id="91-crwCGvRFBWFTtSziR-13" value="Okozukai Wallet&#39;s System Architecture" style="text;html=1;strokeColor=none;fillColor=none;align=center;verticalAlign=middle;whiteSpace=wrap;rounded=0;fontStyle=1;fontSize=21;" parent="1" vertex="1">
          <mxGeometry x="10" y="60" width="420" height="30" as="geometry" />
        </mxCell>
        <mxCell id="91-crwCGvRFBWFTtSziR-15" value="" style="endArrow=classic;html=1;rounded=0;exitX=1;exitY=0.5;exitDx=0;exitDy=0;" parent="1" edge="1">
          <mxGeometry width="50" height="50" relative="1" as="geometry">
            <mxPoint x="170" y="234.5" as="sourcePoint" />
            <mxPoint x="270" y="235" as="targetPoint" />
          </mxGeometry>
        </mxCell>
        <mxCell id="91-crwCGvRFBWFTtSziR-16" value="・tx send&lt;br&gt;・valivate tx" style="text;html=1;strokeColor=none;fillColor=none;align=left;verticalAlign=middle;whiteSpace=wrap;rounded=0;fontStyle=1;fontSize=15;" parent="1" vertex="1">
          <mxGeometry x="370" y="190" width="110" height="30" as="geometry" />
        </mxCell>
        <mxCell id="91-crwCGvRFBWFTtSziR-17" value="send user op&amp;nbsp;" style="text;html=1;strokeColor=none;fillColor=none;align=left;verticalAlign=middle;whiteSpace=wrap;rounded=0;fontStyle=1;fontSize=15;" parent="1" vertex="1">
          <mxGeometry x="175" y="200" width="110" height="30" as="geometry" />
        </mxCell>
        <mxCell id="91-crwCGvRFBWFTtSziR-19" value="&lt;b&gt;&lt;font style=&quot;font-size: 13px;&quot;&gt;The Graph&lt;/font&gt;&lt;/b&gt;" style="shape=cylinder3;whiteSpace=wrap;html=1;boundedLbl=1;backgroundOutline=1;size=15;fillColor=#f5f5f5;strokeColor=#666666;fontColor=#333333;" parent="1" vertex="1">
          <mxGeometry x="341.5" y="490" width="98.5" height="80" as="geometry" />
        </mxCell>
        <mxCell id="91-crwCGvRFBWFTtSziR-20" value="" style="endArrow=classic;html=1;rounded=0;exitX=0;exitY=0.5;exitDx=0;exitDy=0;exitPerimeter=0;entryX=1;entryY=0.5;entryDx=0;entryDy=0;" parent="1" source="91-crwCGvRFBWFTtSziR-19" target="cQ4cHVGCJj-G3HIqwV4h-3" edge="1">
          <mxGeometry width="50" height="50" relative="1" as="geometry">
            <mxPoint x="150" y="360" as="sourcePoint" />
            <mxPoint x="160" y="480" as="targetPoint" />
          </mxGeometry>
        </mxCell>
        <mxCell id="91-crwCGvRFBWFTtSziR-21" value="get data" style="text;html=1;strokeColor=none;fillColor=none;align=left;verticalAlign=middle;whiteSpace=wrap;rounded=0;fontStyle=1;fontSize=15;" parent="1" vertex="1">
          <mxGeometry x="210" y="530" width="90" height="30" as="geometry" />
        </mxCell>
        <mxCell id="91-crwCGvRFBWFTtSziR-23" value="indexed" style="text;html=1;strokeColor=none;fillColor=none;align=left;verticalAlign=middle;whiteSpace=wrap;rounded=0;fontStyle=1;fontSize=15;" parent="1" vertex="1">
          <mxGeometry x="506.5" y="450" width="110" height="30" as="geometry" />
        </mxCell>
        <mxCell id="D8Y7BRWgv8-24tozYhRP-1" value="factory&lt;br&gt;Manager" style="rounded=0;whiteSpace=wrap;html=1;fontStyle=1;fillColor=#ffff88;strokeColor=#36393d;" vertex="1" parent="1">
          <mxGeometry x="501.5" y="305" width="120" height="60" as="geometry" />
        </mxCell>
        <mxCell id="D8Y7BRWgv8-24tozYhRP-2" value="AccountFactory&lt;br&gt;Contract" style="rounded=0;whiteSpace=wrap;html=1;fontStyle=1;fillColor=#ffff88;strokeColor=#36393d;" vertex="1" parent="1">
          <mxGeometry x="659" y="305" width="125.5" height="60" as="geometry" />
        </mxCell>
        <mxCell id="D8Y7BRWgv8-24tozYhRP-3" value="" style="endArrow=classic;html=1;rounded=0;exitX=1;exitY=0.5;exitDx=0;exitDy=0;entryX=0;entryY=0.5;entryDx=0;entryDy=0;" edge="1" parent="1" source="D8Y7BRWgv8-24tozYhRP-1" target="D8Y7BRWgv8-24tozYhRP-2">
          <mxGeometry width="50" height="50" relative="1" as="geometry">
            <mxPoint x="374" y="245" as="sourcePoint" />
            <mxPoint x="512" y="245" as="targetPoint" />
          </mxGeometry>
        </mxCell>
        <mxCell id="D8Y7BRWgv8-24tozYhRP-4" value="" style="endArrow=classic;html=1;rounded=0;entryX=0.5;entryY=1;entryDx=0;entryDy=0;exitX=0.5;exitY=0;exitDx=0;exitDy=0;" edge="1" parent="1" source="D8Y7BRWgv8-24tozYhRP-2">
          <mxGeometry width="50" height="50" relative="1" as="geometry">
            <mxPoint x="719.6428571428571" y="305" as="sourcePoint" />
            <mxPoint x="722.5" y="265" as="targetPoint" />
          </mxGeometry>
        </mxCell>
        <mxCell id="cQ4cHVGCJj-G3HIqwV4h-1" value="&lt;span style=&quot;font-size: 13px;&quot;&gt;&lt;b&gt;Polybase&lt;/b&gt;&lt;/span&gt;" style="shape=cylinder3;whiteSpace=wrap;html=1;boundedLbl=1;backgroundOutline=1;size=15;fillColor=#f5f5f5;strokeColor=#666666;fontColor=#333333;" vertex="1" parent="1">
          <mxGeometry x="270" y="310" width="98.5" height="70" as="geometry" />
        </mxCell>
        <mxCell id="cQ4cHVGCJj-G3HIqwV4h-2" value="" style="endArrow=classic;html=1;rounded=0;exitX=0.5;exitY=1;exitDx=0;exitDy=0;entryX=1;entryY=0.5;entryDx=0;entryDy=0;entryPerimeter=0;" edge="1" parent="1" source="D8Y7BRWgv8-24tozYhRP-1" target="91-crwCGvRFBWFTtSziR-19">
          <mxGeometry width="50" height="50" relative="1" as="geometry">
            <mxPoint x="374" y="245" as="sourcePoint" />
            <mxPoint x="512" y="245" as="targetPoint" />
          </mxGeometry>
        </mxCell>
        <mxCell id="cQ4cHVGCJj-G3HIqwV4h-3" value="frontend" style="rounded=0;whiteSpace=wrap;html=1;fontStyle=1;fillColor=#e1d5e7;strokeColor=#9673a6;" vertex="1" parent="1">
          <mxGeometry x="90" y="500" width="80" height="60" as="geometry" />
        </mxCell>
        <mxCell id="cQ4cHVGCJj-G3HIqwV4h-4" value="&lt;b&gt;owner (EOA)&lt;/b&gt;" style="shape=umlActor;verticalLabelPosition=bottom;verticalAlign=top;html=1;outlineConnect=0;" vertex="1" parent="1">
          <mxGeometry x="40" y="500" width="30" height="60" as="geometry" />
        </mxCell>
        <mxCell id="cQ4cHVGCJj-G3HIqwV4h-5" value="Push&lt;br&gt;Protocol" style="rounded=1;whiteSpace=wrap;html=1;fontStyle=1;fontSize=14;fillColor=#ffcccc;strokeColor=#36393d;" vertex="1" parent="1">
          <mxGeometry x="269.5" y="420" width="100" height="50" as="geometry" />
        </mxCell>
        <mxCell id="cQ4cHVGCJj-G3HIqwV4h-7" value="" style="endArrow=classic;html=1;rounded=0;exitX=1;exitY=0.5;exitDx=0;exitDy=0;entryX=0;entryY=0.5;entryDx=0;entryDy=0;entryPerimeter=0;edgeStyle=orthogonalEdgeStyle;" edge="1" parent="1" source="91-crwCGvRFBWFTtSziR-10" target="cQ4cHVGCJj-G3HIqwV4h-1">
          <mxGeometry width="50" height="50" relative="1" as="geometry">
            <mxPoint x="180" y="244.5" as="sourcePoint" />
            <mxPoint x="280" y="245" as="targetPoint" />
          </mxGeometry>
        </mxCell>
        <mxCell id="cQ4cHVGCJj-G3HIqwV4h-8" value="" style="endArrow=classic;html=1;rounded=0;exitX=1;exitY=0.5;exitDx=0;exitDy=0;entryX=0;entryY=0.5;entryDx=0;entryDy=0;edgeStyle=orthogonalEdgeStyle;" edge="1" parent="1" source="91-crwCGvRFBWFTtSziR-10" target="cQ4cHVGCJj-G3HIqwV4h-5">
          <mxGeometry width="50" height="50" relative="1" as="geometry">
            <mxPoint x="150" y="299.5" as="sourcePoint" />
            <mxPoint x="240" y="373" as="targetPoint" />
          </mxGeometry>
        </mxCell>
        <mxCell id="cQ4cHVGCJj-G3HIqwV4h-9" value="register tx infos" style="text;html=1;strokeColor=none;fillColor=none;align=left;verticalAlign=middle;whiteSpace=wrap;rounded=0;fontStyle=1;fontSize=15;" vertex="1" parent="1">
          <mxGeometry x="231.5" y="275" width="138.5" height="30" as="geometry" />
        </mxCell>
        <mxCell id="cQ4cHVGCJj-G3HIqwV4h-10" value="notificate receipt infos." style="text;html=1;strokeColor=none;fillColor=none;align=left;verticalAlign=middle;whiteSpace=wrap;rounded=0;fontStyle=1;fontSize=15;" vertex="1" parent="1">
          <mxGeometry x="231.5" y="380" width="178.5" height="30" as="geometry" />
        </mxCell>
      </root>
    </mxGraphModel>
  </diagram>
  <diagram id="BOmJaI9yQNsl0PyGM7c5" name="Contract&#39;s System Architecture">
    <mxGraphModel dx="1242" dy="796" grid="1" gridSize="10" guides="1" tooltips="1" connect="1" arrows="1" fold="1" page="1" pageScale="1" pageWidth="827" pageHeight="1169" math="0" shadow="0">
      <root>
        <mxCell id="0" />
        <mxCell id="1" parent="0" />
        <mxCell id="ASCxLfbmkE4BrLPHF1e9-1" value="Contract&lt;br&gt;Wallet" style="rounded=0;whiteSpace=wrap;html=1;fillColor=#dae8fc;strokeColor=#6c8ebf;" parent="1" vertex="1">
          <mxGeometry x="490" y="150" width="80" height="60" as="geometry" />
        </mxCell>
        <mxCell id="ASCxLfbmkE4BrLPHF1e9-2" value="Contract&lt;br style=&quot;border-color: var(--border-color);&quot;&gt;Wallet" style="rounded=0;whiteSpace=wrap;html=1;fillColor=#dae8fc;strokeColor=#6c8ebf;" parent="1" vertex="1">
          <mxGeometry x="490" y="260" width="80" height="60" as="geometry" />
        </mxCell>
        <mxCell id="ASCxLfbmkE4BrLPHF1e9-3" value="Contract&lt;br style=&quot;border-color: var(--border-color);&quot;&gt;Wallet" style="rounded=0;whiteSpace=wrap;html=1;fillColor=#dae8fc;strokeColor=#6c8ebf;" parent="1" vertex="1">
          <mxGeometry x="490" y="370" width="80" height="60" as="geometry" />
        </mxCell>
        <mxCell id="ASCxLfbmkE4BrLPHF1e9-4" value="Account&lt;br&gt;Factory" style="rounded=0;whiteSpace=wrap;html=1;fillColor=#f8cecc;strokeColor=#b85450;" parent="1" vertex="1">
          <mxGeometry x="290" y="150" width="80" height="60" as="geometry" />
        </mxCell>
        <mxCell id="ASCxLfbmkE4BrLPHF1e9-5" value="Account&lt;br&gt;Factory" style="rounded=0;whiteSpace=wrap;html=1;fillColor=#f8cecc;strokeColor=#b85450;" parent="1" vertex="1">
          <mxGeometry x="290" y="260" width="80" height="60" as="geometry" />
        </mxCell>
        <mxCell id="ASCxLfbmkE4BrLPHF1e9-6" value="Account&lt;br&gt;Factory" style="rounded=0;whiteSpace=wrap;html=1;fillColor=#f8cecc;strokeColor=#b85450;" parent="1" vertex="1">
          <mxGeometry x="290" y="370" width="80" height="60" as="geometry" />
        </mxCell>
        <mxCell id="ASCxLfbmkE4BrLPHF1e9-7" value="Factory&lt;br&gt;Manager" style="rounded=0;whiteSpace=wrap;html=1;fillColor=#e1d5e7;strokeColor=#9673a6;" parent="1" vertex="1">
          <mxGeometry x="100" y="260" width="80" height="60" as="geometry" />
        </mxCell>
        <mxCell id="ASCxLfbmkE4BrLPHF1e9-8" value="" style="endArrow=classic;html=1;rounded=0;entryX=0;entryY=0.5;entryDx=0;entryDy=0;exitX=1;exitY=0.5;exitDx=0;exitDy=0;" parent="1" source="ASCxLfbmkE4BrLPHF1e9-7" target="ASCxLfbmkE4BrLPHF1e9-5" edge="1">
          <mxGeometry width="50" height="50" relative="1" as="geometry">
            <mxPoint x="250" y="390" as="sourcePoint" />
            <mxPoint x="300" y="340" as="targetPoint" />
          </mxGeometry>
        </mxCell>
        <mxCell id="ASCxLfbmkE4BrLPHF1e9-9" value="" style="endArrow=classic;html=1;rounded=0;entryX=0;entryY=0.5;entryDx=0;entryDy=0;exitX=1;exitY=0.5;exitDx=0;exitDy=0;edgeStyle=orthogonalEdgeStyle;" parent="1" source="ASCxLfbmkE4BrLPHF1e9-7" target="ASCxLfbmkE4BrLPHF1e9-4" edge="1">
          <mxGeometry width="50" height="50" relative="1" as="geometry">
            <mxPoint x="190" y="300" as="sourcePoint" />
            <mxPoint x="300" y="300" as="targetPoint" />
          </mxGeometry>
        </mxCell>
        <mxCell id="ASCxLfbmkE4BrLPHF1e9-10" value="" style="endArrow=classic;html=1;rounded=0;entryX=0;entryY=0.5;entryDx=0;entryDy=0;edgeStyle=orthogonalEdgeStyle;" parent="1" target="ASCxLfbmkE4BrLPHF1e9-6" edge="1">
          <mxGeometry width="50" height="50" relative="1" as="geometry">
            <mxPoint x="180" y="290" as="sourcePoint" />
            <mxPoint x="300" y="190" as="targetPoint" />
          </mxGeometry>
        </mxCell>
        <mxCell id="ASCxLfbmkE4BrLPHF1e9-11" value="" style="endArrow=classic;html=1;rounded=0;exitX=1;exitY=0.5;exitDx=0;exitDy=0;" parent="1" source="ASCxLfbmkE4BrLPHF1e9-5" target="ASCxLfbmkE4BrLPHF1e9-2" edge="1">
          <mxGeometry width="50" height="50" relative="1" as="geometry">
            <mxPoint x="190" y="300" as="sourcePoint" />
            <mxPoint x="300" y="300" as="targetPoint" />
          </mxGeometry>
        </mxCell>
        <mxCell id="ASCxLfbmkE4BrLPHF1e9-12" value="" style="endArrow=classic;html=1;rounded=0;exitX=1;exitY=0.5;exitDx=0;exitDy=0;entryX=0;entryY=0.5;entryDx=0;entryDy=0;" parent="1" source="ASCxLfbmkE4BrLPHF1e9-4" target="ASCxLfbmkE4BrLPHF1e9-1" edge="1">
          <mxGeometry width="50" height="50" relative="1" as="geometry">
            <mxPoint x="380" y="300" as="sourcePoint" />
            <mxPoint x="500" y="300" as="targetPoint" />
          </mxGeometry>
        </mxCell>
        <mxCell id="ASCxLfbmkE4BrLPHF1e9-13" value="" style="endArrow=classic;html=1;rounded=0;exitX=1;exitY=0.5;exitDx=0;exitDy=0;entryX=0;entryY=0.5;entryDx=0;entryDy=0;" parent="1" source="ASCxLfbmkE4BrLPHF1e9-6" target="ASCxLfbmkE4BrLPHF1e9-3" edge="1">
          <mxGeometry width="50" height="50" relative="1" as="geometry">
            <mxPoint x="380" y="190" as="sourcePoint" />
            <mxPoint x="500" y="190" as="targetPoint" />
          </mxGeometry>
        </mxCell>
        <mxCell id="Rxmj9WsjUdsU_FUsIxhb-1" value="Contract Layer&#39;s System Architecture" style="text;html=1;strokeColor=none;fillColor=none;align=center;verticalAlign=middle;whiteSpace=wrap;rounded=0;fontStyle=1;fontSize=21;" vertex="1" parent="1">
          <mxGeometry x="50" y="60" width="420" height="30" as="geometry" />
        </mxCell>
        <mxCell id="Rxmj9WsjUdsU_FUsIxhb-2" value="1 user&lt;br style=&quot;font-size: 14px;&quot;&gt;1 Contract Wallet" style="shape=callout;whiteSpace=wrap;html=1;perimeter=calloutPerimeter;position2=0.17;fontSize=14;fontStyle=1" vertex="1" parent="1">
          <mxGeometry x="570" y="80" width="130" height="80" as="geometry" />
        </mxCell>
        <mxCell id="Rxmj9WsjUdsU_FUsIxhb-3" value="Factory Manager&lt;br style=&quot;font-size: 13px;&quot;&gt;manages&lt;br style=&quot;font-size: 13px;&quot;&gt;N AccountFactories" style="shape=callout;whiteSpace=wrap;html=1;perimeter=calloutPerimeter;position2=0.75;fontStyle=1;fontSize=13;" vertex="1" parent="1">
          <mxGeometry x="30" y="160" width="130" height="90" as="geometry" />
        </mxCell>
      </root>
    </mxGraphModel>
  </diagram>
</mxfile>
